<?xml version="1.0" encoding="utf-8"?>
<!-- Designed by Vexels.com - 2020 All Rights Reserved - https://vexels.com/terms-and-conditions/  -->
<svg version="1.1" id="Layer_1" xmlns="http://www.w3.org/2000/svg" xmlns:xlink="http://www.w3.org/1999/xlink" x="0px" y="0px"
	 viewBox="0 0 1200 1200" enable-background="new 0 0 1200 1200" xml:space="preserve">
<g>
	<g>
		<path fill="#ffffff" d="M1131.353,850.898H68.647c-9.181,0-16.62-7.439-16.62-16.62V66.62c0-9.181,7.439-16.62,16.62-16.62
			h1062.707c9.181,0,16.62,7.439,16.62,16.62v767.657C1147.974,843.459,1140.534,850.898,1131.353,850.898z M85.267,817.657
			h1029.466V83.241H85.267V817.657z"/>
	</g>
	<g>
		<g>
			<line fill="#FFFFFF" x1="382.849" y1="1133.369" x2="491.833" y2="842.461"/>
			<path fill="#ffffff" d="M382.852,1150c-1.942,0-3.908-0.345-5.834-1.059c-8.595-3.226-12.953-12.8-9.735-21.403l108.983-290.908
				c3.226-8.603,12.8-12.937,21.403-9.735c8.595,3.226,12.953,12.8,9.735,21.403l-108.983,290.908
				C395.917,1145.883,389.585,1150,382.852,1150z"/>
		</g>
		<g>
			<line fill="#FFFFFF" x1="817.152" y1="1133.369" x2="708.168" y2="842.461"/>
			<path fill="#ffffff" d="M817.156,1150c-6.733,0-13.065-4.117-15.569-10.794L692.596,848.298
				c-3.218-8.603,1.14-18.177,9.735-21.403c8.595-3.202,18.177,1.132,21.403,9.735l108.991,290.908
				c3.218,8.603-1.14,18.177-9.735,21.403C821.064,1149.655,819.098,1150,817.156,1150z"/>
		</g>
	</g>
	<g>
		<line fill="#FFFFFF" x1="456.458" y1="936.888" x2="743.544" y2="936.888"/>
		<path fill="#ffffff" d="M743.54,953.509H456.46c-9.181,0-16.62-7.439-16.62-16.62s7.439-16.62,16.62-16.62h287.08
			c9.181,0,16.62,7.439,16.62,16.62S752.721,953.509,743.54,953.509z"/>
	</g>
	<g>
		<path fill="#ffffff" d="M1131.353,787.755H68.647c-9.181,0-16.62-7.439-16.62-16.62c0-9.181,7.439-16.62,16.62-16.62h1062.707
			c9.181,0,16.62,7.439,16.62,16.62C1147.974,780.316,1140.534,787.755,1131.353,787.755z"/>
	</g>
	<g>
		<path fill="#ffffff" d="M382.852,782.892c-9.181,0-16.62-7.439-16.62-16.62v-19.397H194.66v19.397
			c0,9.181-7.439,16.62-16.62,16.62c-9.181,0-16.62-7.439-16.62-16.62v-36.017c0-9.181,7.439-16.62,16.62-16.62h204.813
			c9.181,0,16.62,7.439,16.62,16.62v36.017C399.473,775.453,392.033,782.892,382.852,782.892z"/>
	</g>
	<g>
		<g>
			<path fill="#ffffff" d="M493.874,491.687c-3.828,0-7.616-1.766-10.056-5.088l-34.372-46.787l-35.801-56.065
				c-3.7-5.81-1.998-13.515,3.804-17.222c5.794-3.7,13.507-1.998,17.222,3.804l35.335,55.39l33.907,46.113
				c4.077,5.553,2.881,13.354-2.664,17.431C499.026,490.892,496.442,491.687,493.874,491.687z"/>
		</g>
		<g>
			<path fill="#ffffff" d="M424.15,491.687c-2.616,0-5.257-0.827-7.504-2.52c-5.497-4.149-6.589-11.974-2.44-17.463l34.99-46.338
				l34.075-54.901c3.635-5.85,11.324-7.648,17.166-4.021c5.85,3.627,7.648,11.316,4.021,17.166l-35.014,56.329l-35.335,46.787
				C431.654,489.978,427.922,491.687,424.15,491.687z"/>
		</g>
	</g>
	<g>
		<path fill="#ffffff" d="M934.349,510.763c-5.618,0-10.714-3.82-12.102-9.518c-0.241-0.987-0.594-2.416-0.722-26.227l-66.867-0.546
			c-4.647-0.032-8.892-2.656-11.003-6.805c-2.111-4.141-1.741-9.117,0.963-12.905l79.595-111.479
			c3.162-4.43,8.812-6.284,13.988-4.615c5.168,1.677,8.659,6.509,8.627,11.942c-0.193,29.332-0.369,69.001-0.401,99.674l18.787,0.16
			c6.886,0.056,12.415,5.682,12.359,12.568c-0.048,6.846-5.626,12.359-12.463,12.367c-0.032,0-0.064,0-0.104-0.008l-18.562-0.144
			c0.04,11.292,0.12,19.132,0.265,21.355c0.875,6.26-3.122,12.295-9.398,13.82C936.315,510.643,935.32,510.763,934.349,510.763z
			 M878.846,449.739l42.63,0.345c0.008-15.087,0.064-34.717,0.193-60.326L878.846,449.739z"/>
	</g>
	<g>
		<path fill="#ffffff" d="M357.492,502.898h-91.279c-5.096,0-9.686-3.106-11.572-7.841c-1.894-4.735-0.714-10.144,2.977-13.659
			c42.036-40.014,82.163-93.326,74.884-108.919c-10.425-22.342-55.053-3.202-55.495-3.018c-6.284,2.817-13.651-0.016-16.46-6.3
			c-2.809-6.276-0.008-13.635,6.268-16.452c24.918-11.203,71.569-20.585,88.286,15.224c14.309,30.673-28.329,83.631-58.897,116.021
			h61.289c6.886,0,12.471,5.586,12.471,12.471S364.378,502.898,357.492,502.898z"/>
	</g>
	<g>
		<path fill="#ffffff" d="M640.672,502.898h-91.271c-5.096,0-9.686-3.106-11.572-7.841c-1.894-4.735-0.714-10.144,2.977-13.659
			c42.036-40.014,82.155-93.326,74.876-108.919c-10.409-22.326-55.045-3.21-55.487-3.018c-6.292,2.817-13.651-0.016-16.46-6.3
			c-2.809-6.276-0.008-13.635,6.268-16.452c24.918-11.203,71.561-20.585,88.278,15.224c14.309,30.673-28.321,83.631-58.889,116.021
			h61.281c6.886,0,12.471,5.586,12.471,12.471S647.558,502.898,640.672,502.898z"/>
	</g>
	<g>
		<path fill="#ffffff" d="M795.6,423.031h-93.559c-6.886,0-12.471-5.586-12.471-12.471c0-6.886,5.586-12.471,12.471-12.471H795.6
			c6.886,0,12.471,5.586,12.471,12.471C808.071,417.445,802.486,423.031,795.6,423.031z"/>
	</g>
	<g>
		<path fill="#ffffff" d="M795.6,476.656h-93.559c-6.886,0-12.471-5.586-12.471-12.471s5.586-12.471,12.471-12.471H795.6
			c6.886,0,12.471,5.586,12.471,12.471S802.486,476.656,795.6,476.656z"/>
	</g>
</g>
</svg>
