<?xml version="1.0" encoding="utf-8"?>
<!-- Generator: Adobe Illustrator 23.0.3, SVG Export Plug-In . SVG Version: 6.00 Build 0)  -->
<svg version="1.1" id="Capa_1" xmlns="http://www.w3.org/2000/svg" xmlns:xlink="http://www.w3.org/1999/xlink" x="0px" y="0px"
	 viewBox="0 0 1200 1200" enable-background="new 0 0 1200 1200" xml:space="preserve">
<path fill="#ffffff" d="M948.621,976.216c-31.984-50.095-63.968-100.19-95.952-150.284c-5.736-8.984-11.325-18.084-17.217-26.966
	c-3.513-5.296-6.986-6.765-13.199-6.835c-7.541-0.086-15.086-0.084-22.633-0.038c-0.47-16.184-0.94-32.367-1.41-48.55
	c12.919,16.509,28.304,31.03,47.067,37.627c26.231,9.222,52.573-5.094,64.155-29.089c11.103-23.001,12.705-53.182,4.489-77.373
	c-6.203-18.264-17.303-35.285-27.209-51.681c-27.589-45.667-57.68-89.8-87.464-134.047c-7.098-10.544-13.441-20.439-18.859-31.901
	c-10.682-22.602-23.296-43.509-35.428-65.235c-2.984-5.343-5.864-10.785-8.809-16.196c3.199-4.791,6.186-9.659,8.969-14.673
	c20.748,4.379,38.753-30.893,40.99-47.277c1.815-13.289,0.704-29.988-9.879-39.696c-4.239-3.889-9.304-6.037-14.307-6.298
	c1.413-12.927,2.306-26.013,2.258-39.043c0.511-0.151,1.026-0.338,1.547-0.601c32.62-16.538,19.865-61.478,1.713-83.616
	c-6.564-8.005-13.626-15.426-19.166-24.236c-4.897-7.787-9.087-16.024-14.809-23.267c-9.723-12.307-23.098-20.268-38.496-18.809
	c-19.122-18.92-47.662-29.887-74.275-27.896c-18.904,1.414-37.39,7.116-54.991,13.893c-11.382,4.383-22.502,11.376-34.03,15.136
	c-0.284-0.081-0.971-0.13-2.396-0.096c-2.799,0.068-5.612,0.459-8.384,0.832c-7.195,0.967-14.069,2.725-20.743,5.596
	c-16.793,7.225-29.564,20.721-39.634,35.667c-6.551,9.724-11.897,20.096-19.319,29.236c-4.409,5.429-9.516,10.178-14.075,15.461
	c-8.764,10.155-11.325,21.686-12.423,34.838c-1.474,17.653-1.066,39.337,11.35,53.441c6.055,6.878,18.559,14.351,29.33,16.333
	c0.826,2.8,1.797,5.527,2.946,8.152c-30.364,17.519,2.239,99.828,43.714,100.099c10.996,13.451,24.01,25.545,38.419,35.521
	c2.003,12.967,2.533,25.732,3.046,38.569c-47.309,10.849-94.5,30.856-134.398,57.989c-0.026,0.017-0.043,0.039-0.068,0.057
	c-55.909,35.468-94.6,88.659-128.43,144.55c-0.102,0.168-0.15,0.333-0.239,0.5c-0.061,0.104-0.099,0.218-0.155,0.325
	c-0.146,0.306-0.314,0.614-0.417,0.916c-0.45,1.251-0.517,2.643-0.14,4.096c0.042,0.156,0.06,0.32,0.112,0.472
	c0.199,0.604,0.462,1.215,0.839,1.832c3.387,5.557,7.043,10.882,10.937,15.976c-16.109,42.949-30.185,96.287-10.496,140.097
	c8.238,18.332,23.085,31.813,40.471,42.203c-23.379,36.768-46.758,73.536-70.138,110.304c-3.336,5.246,1.037,12.102,6.965,12.137
	c8.291,0.048,16.583,0.097,24.875,0.145c7.326,22.623,14.652,45.245,21.978,67.867c1.111,3.432,4.111,5.877,7.778,5.922
	c14.168,0.173,28.337,0.347,42.505,0.521c5.031,28.42,10.062,56.839,15.093,85.259c0.609,3.439,4.48,5.922,7.778,5.922
	c12.427,0,24.854,0,37.28,0c4.36,0,8.066-3.696,8.066-8.066c0-27.427,0-54.853,0-82.28c27.422,0.336,54.845,0.672,82.267,1.007
	c87.975,1.077,175.95,2.154,263.926,3.232c0,26.014,0,52.027,0,78.041c0,4.36,3.695,8.066,8.066,8.066c12.427,0,24.854,0,37.281,0
	c3.263,0,7.169-2.483,7.778-5.922c4.683-26.454,9.365-52.908,14.049-79.362c15.591,0.191,31.182,0.382,46.773,0.573
	c3.58,0.044,6.791-2.543,7.778-5.922c6.93-23.728,13.859-47.457,20.788-71.185c9.751,0.057,19.501,0.114,29.252,0.171
	C947.599,988.387,951.939,981.413,948.621,976.216z M738.472,412.514c16.417,25.434,26.4,54.155,43.251,79.259
	c24.517,36.525,49.225,72.924,72.823,110.054c19.165,30.154,46.621,64.39,48.022,101.562c0.933,24.73-6.932,60.655-36.588,64.213
	c-33.3,3.995-59.977-38.33-75.836-64.736c2.588-2.143,5.436-3.953,8.457-5.457c4.235,8.861,8.471,17.722,12.706,26.583
	c4.475,9.362,18.388,1.188,13.929-8.142c-15.879-33.223-31.758-66.446-47.638-99.669c-0.174-1.701-0.882-3.036-1.915-4.007
	c-15.358-32.133-30.716-64.265-46.074-96.398c1.733-4.083,0.578-9.509-4.927-11.075c-15.38-4.375-26.162-15.739-32.721-29.673
	c7.372-4.671,3.134-18.071-6.001-14.708c-9.49,3.494-14.287-2.065-16.294-9.783c7.448-3.485,15.299-6.652,23.504-7.161
	c10.313-0.64,10.385-16.776,0-16.132c-8.524,0.529-16.487,2.942-24.243,6.122c0.316-2.326,0.779-4.381,1.328-5.945
	c2.676-7.624,4.975-10.96,12.588-13.544c7.245-2.459,14.171-3.65,21.654-1.565c10.016,2.791,14.291-12.768,4.289-15.555
	c-1.486-0.414-2.993-0.738-4.511-0.994c-1.914-5.49-3.864-10.976-5.568-16.525c-1.505-4.899-7.312-33.563,4.216-25.508
	c7.484,5.229,13.125,19.182,17.423,26.85C726.327,391.253,731.834,402.23,738.472,412.514z M779.541,690.797
	c-1.951-4.048-3.719-8.177-5.196-12.485c-0.554-1.614-2.016-8.228-2.192-7.033c-0.083-4.836,1.065-10.03,1.548-14.806
	c0.31-3.071,0.621-6.143,0.932-9.214c5.672,11.866,11.343,23.733,17.014,35.599C787.171,684.947,783.163,687.64,779.541,690.797z
	 M450.475,235.452c-4.341-0.436-8.066,4.019-8.066,8.066c0,1.828,0.566,3.376,1.5,4.621c-3.216-2.126-5.999-4.547-7.604-6.97
	c-8.621-13.016-7.173-34.137-4.48-48.676c1.894-10.221,7.347-15.703,14.187-23.07c11.358-12.234,19.147-26.283,28.436-40.021
	c8.908-13.174,20.493-25.128,35.785-30.509c9.187-3.233,19.363-1.826,28.196-5.077c23.079-8.492,43.896-20.296,68.428-25.374
	c28.727-5.946,59.256,1.981,79.502,23.944c1.995,2.164,5.093,2.695,7.848,2.074c16.492-3.714,26.826,11.764,34.186,23.894
	c5.904,9.731,11.792,18.912,19.156,27.613c8.682,10.256,17.86,19.924,20.967,33.465c1.378,6.005-0.701,15.443-2.622,22.111
	c-0.647-4.409-4.273-8.132-9.571-6.062c-18.756,7.328-35.826-7.776-43.114-24.246c1.356-0.529,2.675-1.096,3.917-1.722
	c9.27-4.678,1.113-18.6-8.142-13.929c-7.564,3.817-20.48,4.639-28.125,0.669c-9.133-4.743-12.254-15.499-14.82-24.707
	c-2.783-9.986-18.352-5.744-15.556,4.288c1.652,5.929,3.685,11.885,6.502,17.315c-18.017,14.012-49.578,20.077-69.807,7.675
	c-2.363-1.661-3.5-2.229-6.37-4.891c-1.402-1.348-2.712-2.823-3.916-4.432c-6.145-8.216-20.156-0.183-13.929,8.142
	c2.044,2.733,4.308,5.186,6.723,7.421c-10.66,21.016-47.032,31.071-63.625,12.281c-6.886-7.797-18.259,3.647-11.407,11.407
	c1.987,2.25,4.171,4.188,6.482,5.895c-8,14.236-34.629,18.036-46.941,9.594c-8.583-5.885-16.661,8.088-8.142,13.929
	c5.555,3.808,12.132,5.981,19.035,6.721C463.143,232.659,457.717,236.179,450.475,235.452z M524.353,379.549
	c-2.875-2.955-5.673-5.988-8.367-9.109c-0.797-0.924-5.325-6.517-3.345-3.947c-2.404-3.121-5.184-4.414-9.109-3.707
	c-21.077,3.797-33.166-27.962-37.794-42.904c-2.116-6.833-6.268-19.674-0.159-25.847c1.705-1.723,5.702-2.45,4.654-2.401
	c5.585-0.257,10.74-6.851,6.965-12.137c-3.427-4.797-5.669-10.586-7.238-16.624c0.109-1.77-0.261-3.525-1.142-4.948
	c-0.673-3.344-1.184-6.699-1.603-9.958c7.942-4.505,13.679-12.625,14.691-21.964c13.887-2.866,26.874-10.829,33.541-22.417
	c24.39,6.78,55.114-5.515,67.6-27.313c25.85,12.882,61.093,7.428,83.711-10.257c2.287,2.007,4.85,3.771,7.778,5.189
	c6.594,3.193,14.749,4.221,22.755,3.597c8.164,20.521,27.927,39.673,50.294,38.943c1.444,21.921-0.381,44.281-3.221,65.956
	c-1.17,8.935,10.931,9.535,15.031,4.071c3.04-4.053,9.815,8.39,10.559,11.892c1.599,7.527,0.801,15.661-1.222,23.017
	c-2.381,8.659-7.511,18.379-15.247,23.442c-2.782,1.821-7.38,1.842-6.252,2.76c-3.767-3.067-10.093-3.396-12.668,1.632
	c-2.341,4.572-4.837,9-7.476,13.349c-2.25-3.63-4.606-7.188-7.136-10.622c-6.468-8.778-15.391-17.205-27.165-12.575
	c-22.044,8.669-12.574,39.362-5.556,59.281c-5.512,0.946-10.911,2.656-15.901,5.049c-9.099,4.362-14.192,13.252-17.013,22.762
	c-0.309,0.076-0.618,0.149-0.927,0.223c-1.141,0.043-2.241,0.302-3.235,0.762c-31.904,6.55-66.574-1.575-93.933-18.789
	c-0.538-0.339-1.061-0.7-1.594-1.046c-0.997-1.62-2.518-2.534-4.227-2.851C540.995,395.462,532.355,387.774,524.353,379.549z
	 M560.458,458.168c0.126-1.726,0.209-3.372,0.154-4.804c-0.364-9.458-1.231-18.863-2.408-28.235
	c27.321,14.503,58.215,21.404,89.179,16.509c1.454,12.128,3.29,25.735,1.357,36.658c-0.129,0.449-0.509,1.718-1.062,2.308
	c-11.915,12.724-35.349,11.389-51.141,9.558c-9.866-1.144-31.334-4.764-35.963-15.98c-1.096-2.655-0.857-7.002-0.491-11.393
	C560.671,461.36,560.774,459.746,560.458,458.168z M603.903,506.905c14.347,0.719,34.164,0.275,47.626-8.253
	c-12.177,28.628-29.932,55.141-43.62,83.054c-18.252-28.36-34.877-57.67-49.846-87.866
	C571.095,503.029,588.491,506.133,603.903,506.905z M417.256,524.836c0.035-0.023,0.059-0.051,0.095-0.074
	c34.054-23.142,73.194-40.809,113.316-51.948c0.118,0.769,0.308,1.55,0.67,2.346c19.851,43.578,43.065,85.408,69.54,125.31
	c2.388,3.599,6.211,4.259,9.442,3.204c2.704,0.368,5.436-0.733,6.941-4.107c18.191-40.808,46.715-77.942,58.544-121.429
	c7.657,18.004,20.495,32.979,38.858,40.156c-0.282,1.57-0.098,3.29,0.744,5.053c15.304,32.019,30.608,64.038,45.912,96.058
	c-1.404,13.881-2.808,27.762-4.212,41.643c-1.795,17.747,4.668,31.805,13.536,47.51c1.394,2.468,3.449,3.623,5.593,3.862
	c0.311,0.052,0.619,0.081,0.926,0.092c1.386,2.267,2.811,4.561,4.27,6.872c-0.006,0.185-0.044,0.348-0.038,0.54
	c0.7,24.118,1.4,48.236,2.1,72.354c-18.47,0.256-36.944,0.671-55.391,0.869c-28.833,0.311-57.665,0.621-86.497,0.932
	c-1.546-4.376-3.099-8.749-4.571-13.148c-3.12-9.328-6.865-37.342-21.974-35.725c-14.792,1.583-9.67,19.834-7.073,28.602
	c2.244,7.572,4.607,15.086,7.033,22.575c-52.501,0.566-105.003,1.131-157.504,1.697c-7.719-3.085-15.44-6.162-23.178-9.195
	c-0.001-0.013,0.003-0.023,0.002-0.036c-0.939-28.754-1.878-57.509-2.817-86.263c0.952-1.77,1.903-3.539,2.855-5.309
	c1.371-1.289,2.204-3.2,2.005-5.75c-4.232-54.119-9.43-108.77-29.664-159.616C410.162,529.48,413.665,527.112,417.256,524.836z
	 M570.936,808.953c-4.377,1.092-8.802,2.386-13.308,3.854c-10.061,3.275-20.034,6.855-29.899,10.68
	c-0.084,0.033-0.135,0.064-0.2,0.095c-0.116-0.049-0.214-0.095-0.352-0.149c-3.498-1.377-7.341-2.227-10.918-3.396
	c-9.641-3.151-19.175-6.599-28.66-10.186C515.379,809.552,543.157,809.253,570.936,808.953z M393.398,541.994
	c17.685,47.34,22.766,97.622,26.712,147.768c-1.041,1.936-2.082,3.872-3.123,5.808c-0.558,0.662-0.986,1.451-1.269,2.36
	c-5.653,10.51-11.305,21.021-16.958,31.531c-36.155-7.874-67.6-26.892-90.699-54.991c-0.287-0.474-0.641-0.901-1.04-1.29
	c-3.511-4.36-6.82-8.933-9.92-13.712C323.772,615.825,353.632,573.904,393.398,541.994z M418.005,782.624
	c-1.525-0.57-3.042-1.159-4.57-1.72c-6.598-2.422-13.276-5.005-20.014-7.477c7.631-14.189,15.262-28.378,22.893-42.568
	C416.878,748.115,417.441,765.37,418.005,782.624z M301.281,823.193c-24.824-36.947-12.188-88.96,2.225-129.472
	c23.426,24.879,53.45,42.445,87.306,50.514c-4.194,7.799-8.388,15.597-12.583,23.396c-0.095,0.176-0.137,0.347-0.217,0.522
	c-4.723-1.472-9.469-2.8-14.238-3.854c-7.587-1.678-10.827,9.984-3.216,11.666c16.876,3.731,33.497,10.67,49.659,16.607
	c14.274,5.243,28.396,10.903,42.524,16.549c0.662,0.49,1.48,0.822,2.43,0.97c18.73,7.48,37.486,14.889,56.635,21.206
	c4.644,1.532,10.95,4.807,16.027,4.658c6.775-0.198,14.938-5.265,21.236-7.481c25.649-9.024,48.37-15.547,74.635-6.692
	c2.09,5.806,4.255,11.593,6.491,17.361c-7.617-3.268-14.771-7.081-20.055-12.178c-5.606-5.407-14.172,3.137-8.555,8.555
	c17.284,16.672,45.426,17.813,64.137,32.356c6.614,5.141,9.54,14.575-1.258,16.261c-7.371,1.151-17.755-3.905-24.318-6.789
	c-10.468-4.6-19.838-10.913-29.955-16.093c-6.918-3.542-13.047,6.893-6.106,10.447c6.591,3.375,22.366,12.942,38.178,19.181
	c-3.442,2.149-7.103,2.922-12.723,2.297c-6.489-0.722-12.833-2.606-19.195-4.013c-7.587-1.677-10.828,9.984-3.216,11.667
	c9.432,2.085,19.065,5.148,28.829,4.723c1.15-0.05,2.238-0.166,3.276-0.338c3.601,5.936-14.222,6.423-18.562,6.267
	c-7.293-0.261-14.61-1.194-21.752-2.698c-7.596-1.6-10.843,10.06-3.216,11.667c4.307,0.907,8.814,1.735,13.385,2.359
	c-7.709,0.683-15.191-0.489-22.846-2.839c-14.577-4.476-26.12-13.097-39.562-19.526c-4.019-1.922-7.659-1.857-12.075-2.141
	c-10.223-0.656-20.431-1.601-30.612-2.731c-33.925-3.763-67.748-9.762-100.641-18.943c-18.758-5.236-37.345-11.491-55.017-19.722
	C331.028,848.85,312.208,839.455,301.281,823.193z M554.331,923.711c20.439,10.844,42.803,19.019,66.059,13.534
	c7.184-1.694,19.536-7.497,19.876-15.942c9.413-3.785,14.779-12.843,10.246-21.213c1.365-1.051,2.7-2.207,4.047-3.48
	c4.462,10.984,11.681,31.105,24.388,29.587c13.571-1.62,4.227-22.337-0.822-33.346c3.12-2.637,5.189-6.806,5.742-13.005
	c1.234-13.819-9.828-21.64-20.724-27.18c-1.768-4.867-3.569-9.725-5.377-14.581c10.455-0.224,20.91-0.449,31.365-0.673
	c13.094,35.242,26.187,70.485,39.281,105.728c-66.26,0-132.519,0-198.78,0c-6.059,0-12.117,0-18.176,0
	c3.62-9.614,7.24-19.229,10.86-28.843c0.062-0.166,0.076-0.317,0.128-0.479c5.117,0.502,10.235,0.854,15.281,0.811
	c0.376-0.003,0.702,0.003,1.001,0.014C543.071,918.366,549.455,921.124,554.331,923.711z M538.85,914.65
	C542.103,914.796,540.685,915.695,538.85,914.65L538.85,914.65z M407.569,1133.868c-7.495,0-14.99,0-22.485,0
	c-4.417-24.95-8.833-49.899-13.25-74.849c11.912,0.146,23.823,0.292,35.735,0.438
	C407.569,1084.261,407.569,1109.064,407.569,1133.868z M808.511,1133.868c-7.495,0-14.99,0-22.486,0c0-23.259,0-46.518,0-69.777
	c9.138,0.112,18.275,0.224,27.413,0.336c2.45,0.03,4.899,0.06,7.349,0.09C816.695,1087.634,812.603,1110.751,808.511,1133.868z
	 M877.812,1049.083c-15.791-0.193-31.583-0.387-47.374-0.58c-0.641-0.082-1.277-0.087-1.903-0.023
	c-45.895-0.562-91.79-1.124-137.685-1.686c-102.49-1.255-204.981-2.51-307.471-3.765c-21.506-0.263-43.011-0.527-64.517-0.79
	c-6.221-19.21-12.442-38.42-18.663-57.63c62.976,0.368,125.951,0.735,188.927,1.103c122.646,0.716,245.292,1.432,367.939,2.147
	c12.853,0.075,25.707,0.15,38.56,0.225C889.688,1008.417,883.75,1028.75,877.812,1049.083z M710.878,970.874
	c-122.646-0.716-245.292-1.432-367.938-2.148c-16.8-0.098-33.6-0.196-50.4-0.294c-2.373-1.184-5.262-1.119-7.623-0.044
	c-3.98-0.023-7.96-0.046-11.94-0.07c20.934-32.922,41.868-65.845,62.802-98.767c16.301,7.843,33.744,13.634,49.53,18.573
	c38.534,12.056,78.602,19.14,118.684,23.583c0.678,0.075,1.362,0.157,2.042,0.236c-4.658,12.373-9.318,24.747-13.977,37.12
	c-1.88,4.994,2.929,10.21,7.778,10.21c70.117,0,140.233,0,210.35,0c9.933,0,19.865,0,29.798,0c4.868,0,9.634-5.212,7.778-10.21
	c-15.106-40.66-30.213-81.319-45.319-121.979c-1.229-3.308-4.024-6.002-7.778-5.922c-14.288,0.307-28.575,0.613-42.863,0.92
	c-1.483-3.974-2.942-7.956-4.407-11.937c58.288-0.628,116.576-1.256,174.864-1.884c34.876,54.624,69.752,109.249,104.628,163.873
	C854.885,971.715,782.882,971.294,710.878,970.874z M661.26,367.297c-7.599,0.431-14.145,5.769-19.993,10.141
	c-3.509,2.623-9.027,0.54-11.036-2.894c-2.375-4.061-0.59-8.431,2.894-11.036c8.515-6.365,17.252-11.727,28.135-12.343
	C671.649,350.576,671.582,366.712,661.26,367.297z M677.41,253.678c-0.2,5.627-0.677,15.165-6.749,17.825
	c-7.804,3.419-9.732-6.815-9.356-11.968c0.291-3.991,1.62-11.714,5.526-14.509C672.613,240.889,677.591,248.547,677.41,253.678z
	 M569.141,267.095c0.812,7.252-6.614,12.182-11.708,5.828c-3.712-4.629-5.626-10.837-4.859-16.731
	c0.601-4.615,3.13-9.541,8.559-7.229C567.037,251.479,568.52,261.55,569.141,267.095z M654.426,226.36
	c-0.379-4.97,3.707-9.286,8.387-10.225c7.526-1.511,14.697,1.463,21.63,3.97c2.031,0.734,4.181,1.447,6.296,2.274
	c4.161,1.626,8.185,3.691,10.893,7.213c2.653,3.452,2.122,10.136-3.247,10.259c-3.219,0.074-6.309-1.671-9.367-2.435
	c-7.107-1.777-14.373-2.898-21.657-3.645C662.204,233.242,654.939,233.089,654.426,226.36z M566.664,233.771
	c-7.284,0.747-14.55,1.868-21.657,3.645c-3.058,0.765-6.148,2.509-9.367,2.435c-5.369-0.123-5.9-6.807-3.247-10.259
	c2.707-3.522,6.732-5.587,10.893-7.213c2.115-0.827,4.266-1.54,6.296-2.274c6.933-2.506,14.103-5.481,21.63-3.97
	c4.679,0.94,8.766,5.255,8.387,10.225C579.085,233.089,571.82,233.242,566.664,233.771z M614.748,313.008
	c3.647,0.922,5.666-0.919,7.055-3.795c1.902-3.939,7.502-4.96,11.035-2.894c3.967,2.32,4.787,7.115,2.894,11.036
	c-4.57,9.462-15.302,13.73-25.272,11.209C600.385,326.016,604.68,310.462,614.748,313.008z M880.069,292.265
	c0.494-4.978,4.995-9.053,10.134-7.965c8.002,1.694,10.931,13.005,3.781,17.69c-3.289,2.155-7.723,1.695-10.535-0.952
	C881.002,299.174,879.769,295.286,880.069,292.265z M824.383,293.98c0.511-5.148,5.164-9.361,10.479-8.236
	c8.275,1.752,11.303,13.448,3.909,18.292c-3.401,2.228-7.986,1.753-10.894-0.985C825.347,301.124,824.073,297.104,824.383,293.98z
	 M446.081,419.651c-1.359,1.145-2.748,2.225-4.191,3.15c-4.499,2.884-8.569,6.874-11.322,3.764c-1.813-1.547-3.343-5.61-1.222-7.837
	c3.885-4.078,9.315-8.927,14.93-13.133c7.734-5.974,7.358-4.724,12.296-4.713c2.386,0.006,4.569,2.065,4.502,4.502
	c-0.441,16.176-1.352,32.318-2.733,48.441c-0.221,2.576-1.912,4.322-4.502,4.502c-1.001,0.202-2.003,0.404-3.004,0.605
	c-2.863,0.858-5.638-1.484-5.699-4.341C444.946,445.683,445.917,428.554,446.081,419.651z M895.541,373.103
	c6.246,14.928,12.05,30.018,17.417,45.285c0.857,2.439,0.033,4.726-2.254,5.955c-0.83,0.595-1.66,1.191-2.49,1.786
	c-2.257,1.959-5.75,0.965-6.98-1.616c-3.833-8.044-9.988-24.059-13.498-32.242c-0.769,1.602-1.591,3.158-2.526,4.594
	c-2.916,4.479-4.987,9.788-8.775,8.085c-2.289-0.666-5.353-3.741-4.335-6.642c1.866-5.314,4.823-11.966,8.214-18.109
	c4.595-8.624,4.766-7.331,9.272-9.35C891.764,369.874,894.601,370.854,895.541,373.103z M823.109,471.432
	c0.294-3.462,0.621-6.932,0.977-10.402c-3.939-0.531-7.876-1.08-11.809-1.661c-3.525-0.521-2.668-5.821-2.264-8.227
	c1.316-7.834-0.161-8.451,7.303-7.595c2.926,0.335,5.858,0.695,8.789,1.074c0.537-3.693,1.118-7.372,1.795-11.017
	c0.315-1.697,1.561-2.633,3.252-2.614c1.768,0.02,6.696-0.805,9.259-0.012c1.608,0.498,2.743,1.453,2.615,3.248
	c-0.305,4.261-0.65,8.518-1.014,12.774c4.353,0.737,8.691,1.528,12.974,2.456c1.687,0.365,2.586,1.639,2.517,3.328
	c-0.073,1.766,0.607,6.716-0.263,9.255c-0.545,1.593-1.533,2.699-3.324,2.518c-4.479-0.454-8.954-0.953-13.426-1.473
	c-0.446,4.309-0.912,8.616-1.419,12.918c-0.417,3.538-5.739,2.839-8.156,2.506C823.049,477.424,822.475,478.919,823.109,471.432z
	 M363.618,380.299c1.983,4.989,3.918,9.998,5.831,15.014c5.331-1.543,10.673-3.017,16.029-4.308
	c2.109-0.508,3.823,0.442,4.667,2.393c0.883,2.039,4.356,7.272,4.759,10.62c0.253,2.101-0.261,3.893-2.387,4.666
	c-5.318,1.934-10.657,3.813-16.003,5.667c1.849,5.122,3.675,10.251,5.451,15.399c1.461,4.233-4.946,6.349-7.864,7.293
	c-9.5,3.072-9.333,5.078-12.704-3.744c-1.559-4.08-3.084-8.187-4.577-12.31c-4.75,1.552-9.506,3.081-14.275,4.57
	c-4.275,1.336-6.2-5.132-7.057-8.076c-2.789-9.587-4.799-9.479,4.119-12.588c3.496-1.219,7.011-2.413,10.536-3.585
	c-1.409-4.473-2.762-8.956-3.987-13.452c-0.571-2.093,0.329-3.834,2.253-4.736c2.012-0.943,7.14-4.57,10.474-5.071
	C360.976,377.736,362.783,378.197,363.618,380.299z M785.397,385.805c6.468,10.952,20.235,15.609,31.777,9.837
	c12.791-6.397,14.859-21.015,9.543-33.051c-0.209-0.621-0.484-1.249-0.886-1.884c-0.341-0.658-0.739-1.205-1.163-1.692
	c-7.253-9.987-19.966-15.457-31.439-8.318C781.457,358.022,778.508,374.14,785.397,385.805z M800.716,365.193
	c4.276-3.706,8.676-0.307,11.186,3.655c2.186,4.216,2.878,10.18-2.169,12.546c-4.007,1.878-8.256-0.138-10.406-3.731
	C797.003,373.783,797.14,368.292,800.716,365.193z M845.591,307.632c3.936-13.041,7.61-26.135,12.53-38.854
	c4.125-10.666,11.329-5.365,19.449-1.295c1.651,0.827,2.92,3.169,2.291,5.002c-6.063,17.661-11.836,35.413-17.32,53.262
	c-0.822,2.677-6.688,2.856-9.369,1.352C840.985,320.262,841.492,321.217,845.591,307.632z M390.229,355.537
	c-1.141-10.282-1.498-9.566,8.446-12.956c9.546-3.255,19.011-6.69,28.788-9.214c8.198-2.117,8.114,4.505,9.166,11.147
	c0.214,1.35-0.648,3.124-2.022,3.535c-13.244,3.966-26.417,8.147-39.524,12.544C393.117,361.252,390.48,357.799,390.229,355.537z
	 M324.842,329.728c-0.639-1.822-0.994-3.697-0.955-5.56c0.095-4.542,5.473-5.483,7.827-2.493c0.629,0.609,1.063,1.442,1.187,2.496
	c1.038,2.729,2.735,6.524,5.042,8.973c1.848,1.278,3.916,2.093,5.83,2.263c0.776-0.181,1.584-0.531,2.43-1.124
	c7.419-5.21-3.047-12.664-7.222-15.04c-3.38-1.924-2.386-6.173,0.36-7.612c4.161-2.927,8.321-5.855,12.482-8.782
	c-0.388-0.091-0.775-0.182-1.163-0.272c-2.719-0.638-5.957-0.937-8.417-2.339c-1.209-0.689-2.343-2.311-2.164-3.773
	c0.662-5.394,3.661-8.457,9.045-7.122c5.565,1.38,10.964,3.468,16.219,5.767c0.466,0.122,0.923,0.29,1.339,0.541
	c0.072,0.035,0.131,0.09,0.201,0.128c0.094,0.042,0.189,0.081,0.283,0.123c2.399,1.078,2.686,3.294,1.807,5.119
	c-0.582,3.598-2.914,5.888-5.999,8.093c-2.801,2.003-5.664,3.926-8.54,5.828c3.436,1.699,6.315,4.176,7.829,8.241
	c2.57,6.902,0.119,14.063-5.724,18.366c-5.957,4.387-14.985,6.881-21.773,2.938C329.356,341.346,326.108,335.712,324.842,329.728z
	 M499.571,748.407c3.191,4.761,10.949,5.676,13.929,0c7.462-14.212,14.924-28.423,22.386-42.635c0.998-1.9,1.161-3.745,0.801-5.413
	c-0.116-0.89-0.343-1.8-0.801-2.729c-8.94-18.159-17.896-36.319-27.232-54.278c-3.489-6.711-12.448-4.065-14.742,1.927
	c-6.702,17.501-15.275,34.381-23.779,51.067c-1.268,2.486-1.647,5.685,0,8.142C479.946,719.127,489.758,733.767,499.571,748.407z
	 M502.402,666.587c5.896,11.631,11.72,23.297,17.482,34.994c-4.731,9.01-9.462,18.021-14.194,27.032
	c-6.425-9.586-12.85-19.172-19.275-28.758C491.969,688.896,497.422,677.837,502.402,666.587z M571.065,746.82
	c3.191,4.761,10.949,5.676,13.929,0c7.462-14.212,14.924-28.424,22.386-42.635c0.998-1.9,1.161-3.746,0.8-5.414
	c-0.115-0.89-0.343-1.799-0.8-2.728c-8.94-18.159-17.896-36.319-27.233-54.278c-3.489-6.711-12.447-4.065-14.742,1.927
	c-6.703,17.501-15.275,34.381-23.779,51.067c-1.267,2.486-1.647,5.685,0,8.142C551.44,717.54,561.252,732.18,571.065,746.82z
	 M573.895,665c5.896,11.631,11.72,23.297,17.482,34.993c-4.731,9.01-9.462,18.021-14.193,27.032
	c-6.425-9.586-12.85-19.172-19.276-28.758C563.463,687.309,568.916,676.249,573.895,665z M642.384,746.82
	c3.191,4.761,10.949,5.676,13.929,0c7.462-14.212,14.924-28.424,22.386-42.635c0.998-1.9,1.161-3.745,0.801-5.413
	c-0.115-0.89-0.343-1.8-0.801-2.729c-8.94-18.159-17.896-36.319-27.232-54.278c-3.489-6.711-12.448-4.065-14.742,1.927
	c-6.702,17.501-15.275,34.381-23.779,51.067c-1.267,2.486-1.647,5.685,0,8.142C622.758,717.54,632.571,732.18,642.384,746.82z
	 M645.214,665c5.895,11.63,11.72,23.297,17.482,34.994c-4.731,9.01-9.463,18.021-14.194,27.032
	c-6.425-9.586-12.85-19.172-19.275-28.758C634.781,687.309,640.235,676.249,645.214,665z M714.456,748.407
	c3.191,4.761,10.949,5.676,13.929,0c7.462-14.212,14.924-28.423,22.386-42.635c0.998-1.9,1.161-3.745,0.8-5.413
	c-0.116-0.89-0.343-1.8-0.8-2.729c-8.94-18.159-17.896-36.319-27.232-54.278c-3.489-6.711-12.448-4.065-14.742,1.927
	c-6.703,17.501-15.275,34.381-23.779,51.067c-1.267,2.486-1.647,5.685,0,8.142C694.831,719.127,704.644,733.767,714.456,748.407z
	 M717.286,666.587c5.896,11.631,11.72,23.297,17.482,34.994c-4.731,9.01-9.463,18.021-14.194,27.032
	c-6.425-9.586-12.851-19.172-19.275-28.758C706.854,688.896,712.308,677.837,717.286,666.587z"/>
</svg>
